<?xml version="1.0" encoding="UTF-8"?>
<!DOCTYPE svg PUBLIC "-//W3C//DTD SVG 1.1//EN" "http://www.w3.org/Graphics/SVG/1.1/DTD/svg11.dtd">
<!-- Creator: CorelDRAW 2021 (64-Bit) -->
<svg xmlns="http://www.w3.org/2000/svg" xml:space="preserve" width="210mm" height="297mm" version="1.1" style="shape-rendering:geometricPrecision; text-rendering:geometricPrecision; image-rendering:optimizeQuality; fill-rule:evenodd; clip-rule:evenodd"
viewBox="0 0 21000 29700"
 xmlns:xlink="http://www.w3.org/1999/xlink"
 xmlns:xodm="http://www.corel.com/coreldraw/odm/2003">
 <defs>
  <style type="text/css">
   <![CDATA[
    .fil0 {fill:#A95B11}
    .fil4 {fill:#F1D074}
    .fil1 {fill:#FAAB05}
    .fil2 {fill:#FCC454}
    .fil3 {fill:#FEED45}
   ]]>
  </style>
 </defs>
 <g id="Layer_x0020_1">
  <metadata id="CorelCorpID_0Corel-Layer"/>
  <g id="_2898995356064">
   <path class="fil0" d="M3735.72 8132.34l22.68 3.38c-51.98,11.44 -176.93,79.29 -215.16,118.9 -101.86,105.54 -201.37,200.94 -209.7,378.47l12.52 66.07 1053.8 229.29c-13.71,-147.74 40.8,-344.73 112.21,-442.25 86.24,-117.76 231.86,-196.65 383.34,-187.59l-14.76 9.55c-26.49,11.62 -137.16,19.66 -219.46,89.2 -11.94,10.1 -2.99,-1.94 -15.05,15.19l-8.91 16.51c-1.56,2.81 -3.07,6.18 -4.2,9.43l105.28 -66.77c53.32,-41.28 201.74,-74.19 265.4,-13.35l49.21 31.5c-17.81,-48.25 -45.49,-66.1 -100.35,-85.05 -112.06,-38.71 -1047.27,-146.65 -1074.02,-163.19l-24.49 -28.64 -118.34 19.35z"/>
   <path class="fil0" d="M3284.12 8732.57l8.62 22.71 384.96 95.7c-12.24,25.83 -40.98,26.13 -61.54,59.09l-16.1 27.63 -218.4 -48.56 124.82 578.59 903.56 248.15 -6.91 -590.2c-91.23,-39.78 -441.23,-101 -571.09,-139.78l-5.22 -2.14c41.64,-24.72 24.47,-13.4 73.05,-7.37l2 -70.24c96.35,25.4 189.16,48.28 284.08,66.47 49.46,9.48 260.49,45.31 287.92,58.57l4.52 762.96c-34.69,-9.82 -32.87,-14 -69.82,-10.41 8.9,6.17 -2.18,0.97 18.88,10.81 5.3,2.48 21.49,8.79 26.47,10.21 30.18,8.57 29.34,11.45 51.92,-2.04 -15.63,-34.86 -24.91,-676.53 -27.87,-778.94 24.85,-7.04 40.11,-13.42 65.28,-22.63l-66.11 9.72c0.02,-100.03 0.13,-188.63 20.71,-284.84 22,-102.81 55.47,-138.05 84,-219.72 -28.9,19.04 -5.6,-5.03 -31.35,28.47l-33.68 76.38c-60.23,161.78 -38.22,233.75 -43.09,396.5l-568.09 -114.72 -5.93 -58.68 -206.12 -44.56c1.6,31.65 6.12,23.81 -6.33,48.19l-403.14 -105.32z"/>
   <path class="fil1" d="M3284.12 8732.57l403.14 105.32c12.45,-24.38 7.93,-16.54 6.33,-48.19l206.12 44.56 5.93 58.68 568.09 114.72c4.87,-162.75 -17.14,-234.72 43.09,-396.5l33.68 -76.38c25.75,-33.5 2.45,-9.43 31.35,-28.47 -28.53,81.67 -62,116.91 -84,219.72 -20.58,96.21 -20.69,184.81 -20.71,284.84l66.11 -9.72c-25.17,9.21 -40.43,15.59 -65.28,22.63 2.96,102.41 12.24,744.08 27.87,778.94l86.83 -40.16 -19.82 -9.6 7.94 -52.34c-30.68,3.83 -9.15,-75.36 -11.57,-143.12l0.49 -475.51 118.75 -56.82c-51.39,3.01 -12.83,3.64 -27.85,-10.91 2.9,-14.41 4.25,-29.73 7,-42.56 15.72,-73.53 2.7,-22.06 10.95,-99.67l-112.2 42.07c-8.51,-86.54 6.65,-209.13 32.56,-288.21 23.43,-71.48 92.24,-175.87 133.41,-198.33l5.98 -55.84 -105.28 66.77c1.13,-3.25 2.64,-6.62 4.2,-9.43l8.91 -16.51c12.06,-17.13 3.11,-5.09 15.05,-15.19 82.3,-69.54 192.97,-77.58 219.46,-89.2l14.76 -9.55c-151.48,-9.06 -297.1,69.83 -383.34,187.59 -71.41,97.52 -125.92,294.51 -112.21,442.25l-1053.8 -229.29 -12.52 -66.07c8.33,-177.53 107.84,-272.93 209.7,-378.47 38.23,-39.61 163.18,-107.46 215.16,-118.9l-22.68 -3.38c-88.71,8.71 -206.36,80.4 -275.55,132.42 -101.21,76.09 -268.43,350.52 -176.05,467.81z"/>
   <path class="fil1" d="M4408.57 9783.74c36.95,-3.59 35.13,0.59 69.82,10.41l-4.52 -762.96c-27.43,-13.26 -238.46,-49.09 -287.92,-58.57 -94.92,-18.19 -187.73,-41.07 -284.08,-66.47l-2 70.24c-48.58,-6.03 -31.41,-17.35 -73.05,7.37l5.22 2.14c129.86,38.78 479.86,100 571.09,139.78l6.91 590.2 -903.56 -248.15 -124.82 -578.59 218.4 48.56 16.1 -27.63c20.56,-32.96 49.3,-33.26 61.54,-59.09l-384.96 -95.7 171.94 766.8c43.84,24.64 921.37,263.93 943.89,261.66z"/>
   <path class="fil0" d="M4951.12 8895.73l-262.66 129.44 -118.75 56.82 -0.49 475.51c2.42,67.76 -19.11,146.95 11.57,143.12 32.51,-28.53 118.38,-71.23 160.04,-95.28 25.81,-14.9 55.62,-29.32 82.64,-44.6 28.06,-15.87 54.32,-38.02 85.71,-44.75 28.56,-34.72 21.92,2.47 29.44,-63.22l66.03 -579.44 -53.53 22.4z"/>
   <path class="fil0" d="M4732.33 8427.56c-41.17,22.46 -109.98,126.85 -133.41,198.33 -25.91,79.08 -41.07,201.67 -32.56,288.21l112.2 -42.07 292.42 -112.53 55.88 -20.12c7.16,-105.62 19.08,-231.77 -27.89,-323.17 -23.43,-24.05 -82.01,-46.24 -137.53,-40.21 -57.17,6.21 -90.32,36.69 -129.11,51.56z"/>
   <path class="fil1" d="M4998.97 8416.21c46.97,91.4 35.05,217.55 27.89,323.17l-55.88 20.12 -2.51 57.3c-24.14,2.82 -170.22,61.3 -184.94,83.92l179.6 -74.78c-0.93,31.68 -1.89,48.25 -12.01,69.79l53.53 -22.4 -66.03 579.44c-7.52,65.69 -0.88,28.5 -29.44,63.22 -10.63,30.05 3.78,48.1 -24.53,71.37 -21.57,17.75 -41.58,13.73 -64.95,49.77 36.53,-13.51 93.98,-52.24 127.14,-71.82 44.6,-26.34 30.12,-33.92 44.56,-149.01 14.66,-116.92 30.1,-232.15 43.36,-347.8 16.59,-144.64 97.81,-594.67 18.16,-678.63l-49.21 -31.5c-0.08,11.19 -1.12,35.81 -4.74,57.84z"/>
   <path class="fil2" d="M4678.56 8872.03c-8.25,77.61 4.77,26.14 -10.95,99.67 -2.75,12.83 -4.1,28.15 -7,42.56 15.02,14.55 -23.54,13.92 27.85,10.91l262.66 -129.44c10.12,-21.54 11.08,-38.11 12.01,-69.79l-179.6 74.78c14.72,-22.62 160.8,-81.1 184.94,-83.92l2.51 -57.3 -292.42 112.53z"/>
   <path class="fil2" d="M4580.79 9700.62l-7.94 52.34 19.82 9.6c28.37,-3.53 208.86,-99.19 227.03,-125.43 23.37,-36.04 43.38,-32.02 64.95,-49.77 28.31,-23.27 13.9,-41.32 24.53,-71.37 -31.39,6.73 -57.65,28.88 -85.71,44.75 -27.02,15.28 -56.83,29.7 -82.64,44.6 -41.66,24.05 -127.53,66.75 -160.04,95.28z"/>
   <path class="fil3" d="M3826.82 8983.76c18.53,-41.98 27.46,-19.31 66.16,-24.32 -1.05,-34.97 -12.7,-3.53 5.02,-50.23l-36.74 15.1c1.37,-2.49 4.44,-7.67 4.9,-6.01l6.88 -9.7c3.85,-12.52 11.55,-7.21 -61.35,-24.55 -1.5,1.59 -3.25,2.44 -4.01,5.5l-8.65 9.71c-1.25,0.88 -3.4,2.79 -4.86,3.6 -16.71,9.27 3.19,5.3 -24.78,5.23 -9.59,-28.76 9.34,-53.32 -51.67,-37.18 16.88,-33.33 10.41,-33.18 48.17,-31.14 8.47,34.36 -3.54,43.78 20.44,70.25 9.36,-12.27 6.7,-3.94 12.15,-23.48 25.1,-90.04 -57.45,-79.97 -85.46,-56.36 -30.9,26.05 -43.56,76.43 -37.19,116.02 8.02,49.82 3,29.07 25.83,37.22 1.47,-2.12 2.67,-8.3 3.15,-7.06 0.48,1.22 2.35,-5.23 2.97,-7.08l10.81 -42.4c53.26,10 70.27,23.66 121.13,8.04 -32.89,34.64 -18.38,38.03 -12.9,48.84z"/>
   <path class="fil4" d="M3832.04 8985.9c-81.53,26.62 -9.25,-27.66 -129.69,21.88 1.83,27.55 3.56,52.77 9.62,79.35 16.84,73.79 66.48,67.51 97.01,8.64 17.85,-34.42 25.93,-68 23.06,-109.87z"/>
   <path class="fil2" d="M4738.31 8371.72l-5.98 55.84c38.79,-14.87 71.94,-45.35 129.11,-51.56 55.52,-6.03 114.1,16.16 137.53,40.21 3.62,-22.03 4.66,-46.65 4.74,-57.84 -63.66,-60.84 -212.08,-27.93 -265.4,13.35z"/>
   <path class="fil3" d="M3739.18 9147.95c-32.43,-61.76 -29.98,-49.29 -47,-133.83l-47.26 -8.91c3.11,83.37 10.71,137.32 94.26,142.74z"/>
   <path class="fil3" d="M3799.71 8836.46c1.41,24.17 -18.02,39.34 96.51,50.99l-1.02 -48.1 -67.79 -11.38c-23.96,0.39 -16.92,1.64 -27.7,8.49z"/>
  </g>
 </g>
</svg>
